<?xml version="1.0" encoding="UTF-8" standalone="no"?>
<!-- Created with Inkscape (http://www.inkscape.org/) -->

<svg
   xmlns:dc="http://purl.org/dc/elements/1.1/"
   xmlns:cc="http://creativecommons.org/ns#"
   xmlns:rdf="http://www.w3.org/1999/02/22-rdf-syntax-ns#"
   xmlns:svg="http://www.w3.org/2000/svg"
   xmlns="http://www.w3.org/2000/svg"
   xmlns:sodipodi="http://sodipodi.sourceforge.net/DTD/sodipodi-0.dtd"
   xmlns:inkscape="http://www.inkscape.org/namespaces/inkscape"
   version="1.1"
   id="svg2"
   xml:space="preserve"
   width="82px"
   height="82px"
   viewBox="0 0 143.86667 164.8"
   sodipodi:docname="Programming Icons (1).ai"
   inkscape:version="0.92.3 (2405546, 2018-03-11)"><metadata
     id="metadata8"><rdf:RDF><cc:Work
         rdf:about=""><dc:format>image/svg+xml</dc:format><dc:type
           rdf:resource="http://purl.org/dc/dcmitype/StillImage" /><dc:title></dc:title></cc:Work></rdf:RDF></metadata><defs
     id="defs6"><clipPath
       clipPathUnits="userSpaceOnUse"
       id="clipPath18"><path
         d="M 0,123.6 H 107.9 V 0 H 0 Z"
         id="path16"
         inkscape:connector-curvature="0" /></clipPath></defs><sodipodi:namedview
     pagecolor="#ffffff"
     bordercolor="#666666"
     borderopacity="1"
     objecttolerance="10"
     gridtolerance="10"
     guidetolerance="10"
     inkscape:pageopacity="0"
     inkscape:pageshadow="2"
     inkscape:window-width="640"
     inkscape:window-height="480"
     id="namedview4"
     showgrid="false"
     inkscape:zoom="1.4320388"
     inkscape:cx="71.933334"
     inkscape:cy="82.400002"
     inkscape:window-x="0"
     inkscape:window-y="0"
     inkscape:window-maximized="0"
     inkscape:current-layer="g10" /><g
     id="g10"
     inkscape:groupmode="layer"
     inkscape:label="Programming Icons (1)"
     transform="matrix(1.3333333,0,0,-1.3333333,0,164.8)"><g
       id="g12"><g
         id="g14"
         clip-path="url(#clipPath18)"><g
           id="g20"
           transform="translate(105.3998,95.1002)"><path
             d="m 0,0 -48.3,27.8 c -0.8,0.5 -1.9,0.7 -3.1,0.7 -1.2,0 -2.3,-0.3 -3.1,-0.7 l -48,-27.9 c -1.7,-1 -2.9,-3.5 -2.9,-5.4 v -55.7 c 0,-1.1 0.2,-2.4 1,-3.5 L 2.4,-2.7 C 1.8,-1.5 0.9,-0.6 0,0"
             style="fill:#9c4f96;fill-opacity:1;fill-rule:nonzero;stroke:none"
             id="path22"
             inkscape:connector-curvature="0" /></g><g
           id="g24"
           transform="translate(0.7001,30.5001)"><path
             d="m 0,0 c 0.5,-0.8 1.2,-1.5 1.9,-1.9 l 48.2,-27.9 c 0.8,-0.5 1.9,-0.7 3.1,-0.7 1.2,0 2.3,0.3 3.1,0.7 l 48,27.9 c 1.7,1 2.9,3.5 2.9,5.4 v 55.7 c 0,0.9 -0.1,1.9 -0.6,2.8 z"
             style="fill:#67297a;fill-opacity:1;fill-rule:nonzero;stroke:none"
             id="path26"
             inkscape:connector-curvature="0" /></g><g
           id="g28"
           transform="translate(91.8002,59.6002)"><path
             d="M 0,0 H 3.8 L 4.7,4.3 H 0.9 Z m -4.8,0 0.9,4.3 H -8.1 V 9 H -3 l 1.2,6.2 H 3.1 L 1.9,9.1 h 3.8 l 1.2,6.1 h 4.8 L 10.5,9.1 h 2.4 V 4.4 H 9.6 L 8.7,0.1 h 4.2 V -4.6 H 7.8 l -1.2,-6 H 1.7 l 1.2,6 h -3.8 l -1.2,-6 h -4.8 l 1.2,6 h -2.4 v 4.7 h 3.3 z m -11.7,-9.9 c -4.2,-7.4 -12.2,-12.4 -21.3,-12.4 -13.5,0 -24.5,11 -24.5,24.5 0,13.5 11,24.5 24.5,24.5 9.1,0 17.1,-5 21.3,-12.5 l 13,7.5 c -6.8,11.9 -19.6,20 -34.3,20 -21.8,0 -39.5,-17.7 -39.5,-39.5 0,-21.8 17.7,-39.5 39.5,-39.5 14.6,0 27.4,8 34.2,19.8 z"
             style="fill:#ffffff;fill-opacity:1;fill-rule:nonzero;stroke:none"
             id="path30"
             inkscape:connector-curvature="0" /></g></g></g></g></svg>