<?xml version="1.0" encoding="UTF-8" standalone="no"?>
<!-- Created with Inkscape (http://www.inkscape.org/) -->

<svg
   xmlns:dc="http://purl.org/dc/elements/1.1/"
   xmlns:cc="http://creativecommons.org/ns#"
   xmlns:rdf="http://www.w3.org/1999/02/22-rdf-syntax-ns#"
   xmlns:svg="http://www.w3.org/2000/svg"
   xmlns="http://www.w3.org/2000/svg"
   xmlns:sodipodi="http://sodipodi.sourceforge.net/DTD/sodipodi-0.dtd"
   xmlns:inkscape="http://www.inkscape.org/namespaces/inkscape"
   version="1.1"
   id="svg2"
   xml:space="preserve"
   width="82px"
   height="82px"
   viewBox="0 0 147.30667 167.06267"
   sodipodi:docname="Programming Icons (1).ai"
   inkscape:version="0.92.3 (2405546, 2018-03-11)"><metadata
     id="metadata8"><rdf:RDF><cc:Work
         rdf:about=""><dc:format>image/svg+xml</dc:format><dc:type
           rdf:resource="http://purl.org/dc/dcmitype/StillImage" /><dc:title></dc:title></cc:Work></rdf:RDF></metadata><defs
     id="defs6" /><sodipodi:namedview
     pagecolor="#ffffff"
     bordercolor="#666666"
     borderopacity="1"
     objecttolerance="10"
     gridtolerance="10"
     guidetolerance="10"
     inkscape:pageopacity="0"
     inkscape:pageshadow="2"
     inkscape:window-width="640"
     inkscape:window-height="480"
     id="namedview4"
     showgrid="false"
     inkscape:zoom="1.4126435"
     inkscape:cx="73.653336"
     inkscape:cy="83.531334"
     inkscape:window-x="611"
     inkscape:window-y="188"
     inkscape:window-maximized="0"
     inkscape:current-layer="g10" /><g
     id="g10"
     inkscape:groupmode="layer"
     inkscape:label="Programming Icons (1)"
     transform="matrix(1.3333333,0,0,-1.3333333,0,167.06267)"><g
       id="g12"
       transform="translate(0,125.2962)"><path
         d="m 0,0 10.054,-112.77 45.119,-12.526 45.243,12.542 L 110.48,0 Z"
         style="fill:#1373b6;fill-opacity:1;fill-rule:nonzero;stroke:none"
         id="path14"
         inkscape:connector-curvature="0" /></g><g
       id="g16"
       transform="translate(55.2413,9.5866)"><path
         d="M 0,0 36.559,10.137 45.16,106.49 H 0 Z"
         style="fill:#32a9dc;fill-opacity:1;fill-rule:nonzero;stroke:none"
         id="path18"
         inkscape:connector-curvature="0" /></g><g
       id="g20"
       transform="translate(55.2413,75.2204)"><path
         d="m 0,0 h 18.302 l 1.263,14.162 H 0 V 27.993 H 34.682 L 34.35,24.282 30.95,-13.831 H 0 Z"
         style="fill:#ffffff;fill-opacity:1;fill-rule:nonzero;stroke:none"
         id="path22"
         inkscape:connector-curvature="0" /></g><g
       id="g24"
       transform="translate(55.3233,39.3005)"><path
         d="m 0,0 -0.062,-0.019 -15.402,4.16 -0.985,11.031 h -13.882 l 1.936,-21.718 28.332,-7.862 0.063,0.017 z"
         style="fill:#ebebeb;fill-opacity:1;fill-rule:nonzero;stroke:none"
         id="path26"
         inkscape:connector-curvature="0" /></g><g
       id="g28"
       transform="translate(72.3672,61.9743)"><path
         d="m 0,0 -1.666,-18.522 -15.426,-4.165 v -14.389 l 28.354,7.857 0.208,2.338 L 13.876,0 Z"
         style="fill:#ffffff;fill-opacity:1;fill-rule:nonzero;stroke:none"
         id="path30"
         inkscape:connector-curvature="0" /></g><g
       id="g32"
       transform="translate(55.2413,75.2185)"><path
         d="m 0,0 v -13.831 h -15.209 l -0.277,3.107 -0.631,7.012 L -16.447,0 Z M 0.047,27.995 V 14.164 h -33.408 l -0.278,3.108 -0.63,7.012 -0.331,3.711 z"
         style="fill:#ebebeb;fill-opacity:1;fill-rule:nonzero;stroke:none"
         id="path34"
         inkscape:connector-curvature="0" /></g></g></svg>