<?xml version="1.0" encoding="UTF-8" standalone="no"?>
<!-- Created with Inkscape (http://www.inkscape.org/) -->

<svg
   xmlns:dc="http://purl.org/dc/elements/1.1/"
   xmlns:cc="http://creativecommons.org/ns#"
   xmlns:rdf="http://www.w3.org/1999/02/22-rdf-syntax-ns#"
   xmlns:svg="http://www.w3.org/2000/svg"
   xmlns="http://www.w3.org/2000/svg"
   xmlns:sodipodi="http://sodipodi.sourceforge.net/DTD/sodipodi-0.dtd"
   xmlns:inkscape="http://www.inkscape.org/namespaces/inkscape"
   version="1.1"
   id="svg2"
   xml:space="preserve"
   width="82px"
   height="82px"
   viewBox="0 0 146.58133 166.23734"
   sodipodi:docname="Programming Icons (1).ai"
   inkscape:version="0.92.3 (2405546, 2018-03-11)"><metadata
     id="metadata8"><rdf:RDF><cc:Work
         rdf:about=""><dc:format>image/svg+xml</dc:format><dc:type
           rdf:resource="http://purl.org/dc/dcmitype/StillImage" /><dc:title></dc:title></cc:Work></rdf:RDF></metadata><defs
     id="defs6" /><sodipodi:namedview
     pagecolor="#ffffff"
     bordercolor="#666666"
     borderopacity="1"
     objecttolerance="10"
     gridtolerance="10"
     guidetolerance="10"
     inkscape:pageopacity="0"
     inkscape:pageshadow="2"
     inkscape:window-width="640"
     inkscape:window-height="480"
     id="namedview4"
     showgrid="false"
     inkscape:zoom="1.419657"
     inkscape:cx="73.290665"
     inkscape:cy="83.118668"
     inkscape:window-x="0"
     inkscape:window-y="0"
     inkscape:window-maximized="0"
     inkscape:current-layer="g10" /><g
     id="g10"
     inkscape:groupmode="layer"
     inkscape:label="Programming Icons (1)"
     transform="matrix(1.3333333,0,0,-1.3333333,0,166.23733)"><g
       id="g12"
       transform="translate(1e-4,124.6779)"><path
         d="m 0,0 10.005,-112.216 44.896,-12.462 45.019,12.48 L 109.936,0 Z"
         style="fill:#e34e25;fill-opacity:1;fill-rule:nonzero;stroke:none"
         id="path14"
         inkscape:connector-curvature="0" /></g><g
       id="g16"
       transform="translate(54.9684,9.5388)"><path
         d="m 0,0 36.378,10.086 8.559,95.878 H 0 Z"
         style="fill:#f16629;fill-opacity:1;fill-rule:nonzero;stroke:none"
         id="path18"
         inkscape:connector-curvature="0" /></g><g
       id="g20"
       transform="translate(54.9684,38.1414)"><path
         d="m 0,0 -0.062,-0.018 -15.326,4.141 -0.979,10.975 h -13.818 l 1.929,-21.61 28.193,-7.825 L 0,-14.32 Z M 0,35.742 H -18.212 L -19.47,49.837 H 0 v 13.762 h -34.511 l 0.329,-3.693 3.383,-37.927 H 0 Z"
         style="fill:#ebebeb;fill-opacity:1;fill-rule:nonzero;stroke:none"
         id="path22"
         inkscape:connector-curvature="0" /></g><g
       id="g24"
       transform="translate(54.9196,101.74)"><path
         d="m 0,0 v -13.762 h 33.244 l 0.277,3.092 0.627,6.978 L 34.478,0 Z M 0,-27.856 V -41.619 H 16.947 L 15.351,-59.468 0,-63.611 V -77.93 l 28.216,7.82 0.207,2.325 3.233,36.233 0.335,3.696 h -3.708 z"
         style="fill:#ffffff;fill-opacity:1;fill-rule:nonzero;stroke:none"
         id="path26"
         inkscape:connector-curvature="0" /></g></g></svg>