<?xml version="1.0" encoding="UTF-8" standalone="no"?>
<!-- Created with Inkscape (http://www.inkscape.org/) -->

<svg
   xmlns:dc="http://purl.org/dc/elements/1.1/"
   xmlns:cc="http://creativecommons.org/ns#"
   xmlns:rdf="http://www.w3.org/1999/02/22-rdf-syntax-ns#"
   xmlns:svg="http://www.w3.org/2000/svg"
   xmlns="http://www.w3.org/2000/svg"
   xmlns:sodipodi="http://sodipodi.sourceforge.net/DTD/sodipodi-0.dtd"
   xmlns:inkscape="http://www.inkscape.org/namespaces/inkscape"
   version="1.1"
   id="svg2"
   xml:space="preserve"
   width="82px"
   height="82px"
   viewBox="0 0 122.74893 166.43468"
   sodipodi:docname="Programming Icons (1).ai"
   inkscape:version="0.92.3 (2405546, 2018-03-11)"><metadata
     id="metadata8"><rdf:RDF><cc:Work
         rdf:about=""><dc:format>image/svg+xml</dc:format><dc:type
           rdf:resource="http://purl.org/dc/dcmitype/StillImage" /><dc:title></dc:title></cc:Work></rdf:RDF></metadata><defs
     id="defs6"><clipPath
       clipPathUnits="userSpaceOnUse"
       id="clipPath18"><path
         d="M 0,124.826 H 92.062 V 0 H 0 Z"
         id="path16"
         inkscape:connector-curvature="0" /></clipPath></defs><sodipodi:namedview
     pagecolor="#ffffff"
     bordercolor="#666666"
     borderopacity="1"
     objecttolerance="10"
     gridtolerance="10"
     guidetolerance="10"
     inkscape:pageopacity="0"
     inkscape:pageshadow="2"
     inkscape:window-width="640"
     inkscape:window-height="480"
     id="namedview4"
     showgrid="false"
     inkscape:zoom="1.4179737"
     inkscape:cx="61.374466"
     inkscape:cy="83.217339"
     inkscape:window-x="0"
     inkscape:window-y="0"
     inkscape:window-maximized="0"
     inkscape:current-layer="g10" /><g
     id="g10"
     inkscape:groupmode="layer"
     inkscape:label="Programming Icons (1)"
     transform="matrix(1.3333333,0,0,-1.3333333,0,166.43467)"><g
       id="g12"><g
         id="g14"
         clip-path="url(#clipPath18)"><g
           id="g20"
           transform="translate(26.6595,41.9574)"><path
             d="m 0,0 c 0,0 -5.348,-3.959 2.823,-4.805 10.567,-1.091 18.91,-1.179 33.354,1.6 0,0 1.993,-2.024 5.132,-3.131 C 11.767,-14.976 -21.137,-7.016 0,0 m 2.988,-13.665 c 0,0 -4.767,-2.773 3.397,-3.71 9.892,-1.13 14.947,-0.968 25.845,1.092 0,0 2.871,-1.795 6.873,-3.351 -24.439,-10.47 -55.308,0.608 -36.115,5.969"
             style="fill:#0674bb;fill-opacity:1;fill-rule:nonzero;stroke:none"
             id="path22"
             inkscape:connector-curvature="0" /></g><g
           id="g24"
           transform="translate(51.8328,65.1414)"><path
             d="m 0,0 c 6.025,-6.935 -1.58,-13.169 -1.58,-13.169 0,0 15.289,7.89 8.269,17.776 C 0.13,13.822 -4.898,18.399 22.324,34.187 22.324,34.186 -20.407,23.517 0,0"
             style="fill:#ea2d2f;fill-opacity:1;fill-rule:nonzero;stroke:none"
             id="path26"
             inkscape:connector-curvature="0" /></g><g
           id="g28"
           transform="translate(72.6399,33.3714)"><path
             d="M 0,0 C 23.421,12.167 12.591,23.86 5.032,22.285 3.184,21.9 2.355,21.565 2.355,21.565 c 0,0 0.688,1.08 2,1.543 C 19.308,28.363 30.806,7.605 -0.468,-0.617 -0.468,-0.615 -0.109,-0.29 0,0 m -40.697,22.747 c 0,0 -22.686,-5.389 -8.033,-7.348 6.188,-0.828 18.518,-0.638 30.011,0.327 9.39,0.788 18.813,2.473 18.813,2.473 0,0 -3.308,-1.419 -5.704,-3.053 -23.042,-6.061 -67.544,-3.238 -54.731,2.958 10.832,5.239 19.644,4.643 19.644,4.643 m 52.211,-37.935 c 0,0 3.529,-2.91 -3.888,-5.159 -14.102,-4.272 -58.706,-5.56 -71.094,-0.171 -4.451,1.938 3.899,4.625 6.526,5.192 2.739,0.594 4.303,0.485 4.303,0.485 -4.953,3.487 -32.013,-6.849 -13.743,-9.815 49.821,-8.075 90.817,3.637 77.896,9.468"
             style="fill:#0674bb;fill-opacity:1;fill-rule:nonzero;stroke:none"
             id="path30"
             inkscape:connector-curvature="0" /></g><g
           id="g32"
           transform="translate(58.5218,124.8255)"><path
             d="m 0,0 c 0,0 12.968,-12.976 -12.303,-32.923 -20.266,-16.006 -4.621,-25.13 -0.007,-35.559 -11.831,10.673 -20.509,20.07 -14.688,28.815 C -18.45,-26.833 5.231,-20.608 0,0"
             style="fill:#ea2d2f;fill-opacity:1;fill-rule:nonzero;stroke:none"
             id="path34"
             inkscape:connector-curvature="0" /></g><g
           id="g36"
           transform="translate(34.2449,0.3919)"><path
             d="m 0,0 c 22.476,-1.437 57,0.8 57.817,11.436 0,0 -1.571,-4.033 -18.577,-7.231 C 20.054,0.593 -3.614,1.014 -17.647,3.331 -17.647,3.33 -14.772,0.949 0,0"
             style="fill:#0674bb;fill-opacity:1;fill-rule:nonzero;stroke:none"
             id="path38"
             inkscape:connector-curvature="0" /></g></g></g></g></svg>