<?xml version="1.0" encoding="UTF-8" standalone="no"?>
<!-- Created with Inkscape (http://www.inkscape.org/) -->

<svg
   xmlns:dc="http://purl.org/dc/elements/1.1/"
   xmlns:cc="http://creativecommons.org/ns#"
   xmlns:rdf="http://www.w3.org/1999/02/22-rdf-syntax-ns#"
   xmlns:svg="http://www.w3.org/2000/svg"
   xmlns="http://www.w3.org/2000/svg"
   xmlns:sodipodi="http://sodipodi.sourceforge.net/DTD/sodipodi-0.dtd"
   xmlns:inkscape="http://www.inkscape.org/namespaces/inkscape"
   version="1.1"
   id="svg2"
   xml:space="preserve"
   width="82px"
   height="82px"
   viewBox="0 0 166.912 166.91333"
   sodipodi:docname="Programming Icons (1).ai"
   inkscape:version="0.92.3 (2405546, 2018-03-11)"><metadata
     id="metadata8"><rdf:RDF><cc:Work
         rdf:about=""><dc:format>image/svg+xml</dc:format><dc:type
           rdf:resource="http://purl.org/dc/dcmitype/StillImage" /><dc:title></dc:title></cc:Work></rdf:RDF></metadata><defs
     id="defs6"><clipPath
       clipPathUnits="userSpaceOnUse"
       id="clipPath20"><path
         d="M 0,125.185 H 125.184 V 0 H 0 Z"
         id="path18"
         inkscape:connector-curvature="0" /></clipPath></defs><sodipodi:namedview
     pagecolor="#ffffff"
     bordercolor="#666666"
     borderopacity="1"
     objecttolerance="10"
     gridtolerance="10"
     guidetolerance="10"
     inkscape:pageopacity="0"
     inkscape:pageshadow="2"
     inkscape:window-width="640"
     inkscape:window-height="480"
     id="namedview4"
     showgrid="false"
     inkscape:zoom="1.4139074"
     inkscape:cx="83.456001"
     inkscape:cy="83.456665"
     inkscape:window-x="0"
     inkscape:window-y="0"
     inkscape:window-maximized="0"
     inkscape:current-layer="g10" /><g
     id="g10"
     inkscape:groupmode="layer"
     inkscape:label="Programming Icons (1)"
     transform="matrix(1.3333333,0,0,-1.3333333,0,166.91333)"><path
       d="M 0,0 H 125.184 V 125.185 H 0 Z"
       style="fill:#f0dc4e;fill-opacity:1;fill-rule:nonzero;stroke:none"
       id="path12"
       inkscape:connector-curvature="0" /><g
       id="g14"><g
         id="g16"
         clip-path="url(#clipPath20)"><g
           id="g22"
           transform="translate(68.054,67.6498)"><path
             d="m 0,0 h -11.709 l -0.048,-30.272 c 0,-6.438 0.333,-12.34 -0.714,-14.149 -1.713,-3.558 -6.152,-3.117 -8.175,-2.427 -2.059,1.012 -3.106,2.451 -4.319,4.485 -0.333,0.584 -0.583,1.036 -0.667,1.071 l -9.52,-5.83 c 1.583,-3.249 3.915,-6.069 6.902,-7.901 4.462,-2.678 10.459,-3.499 16.731,-2.059 4.082,1.189 7.604,3.652 9.448,7.401 2.666,4.915 2.094,10.864 2.07,17.444 C 0.059,-21.502 0,-10.769 0,0 m 46.885,-37.793 c -0.917,5.711 -4.641,10.508 -15.672,14.981 -3.832,1.761 -8.104,3.022 -9.377,5.926 -0.452,1.69 -0.512,2.642 -0.226,3.665 0.821,3.32 4.784,4.355 7.925,3.403 2.023,-0.678 3.938,-2.237 5.093,-4.724 5.402,3.498 5.391,3.475 9.163,5.879 -1.381,2.141 -2.118,3.129 -3.022,4.045 C 37.52,-0.989 33.093,0.88 26.013,0.737 L 22.325,0.26 c -3.534,-0.893 -6.902,-2.748 -8.877,-5.235 -5.926,-6.724 -4.236,-18.492 2.975,-23.335 7.104,-5.332 17.54,-6.545 18.873,-11.531 1.297,-6.104 -4.486,-8.08 -10.234,-7.378 -4.236,0.881 -6.592,3.034 -9.139,6.949 -4.688,-2.713 -4.688,-2.713 -9.508,-5.485 1.143,-2.499 2.344,-3.63 4.26,-5.795 9.068,-9.198 31.76,-8.746 35.83,5.176 0.165,0.478 1.261,3.666 0.38,8.581"
             style="fill:#323330;fill-opacity:1;fill-rule:nonzero;stroke:none"
             id="path24"
             inkscape:connector-curvature="0" /></g></g></g></g></svg>