<?xml version="1.0" encoding="UTF-8" standalone="no"?>
<!-- Created with Inkscape (http://www.inkscape.org/) -->

<svg
   xmlns:dc="http://purl.org/dc/elements/1.1/"
   xmlns:cc="http://creativecommons.org/ns#"
   xmlns:rdf="http://www.w3.org/1999/02/22-rdf-syntax-ns#"
   xmlns:svg="http://www.w3.org/2000/svg"
   xmlns="http://www.w3.org/2000/svg"
   xmlns:sodipodi="http://sodipodi.sourceforge.net/DTD/sodipodi-0.dtd"
   xmlns:inkscape="http://www.inkscape.org/namespaces/inkscape"
   version="1.1"
   id="svg2"
   xml:space="preserve"
   width="64px"
   height="64px"
   viewBox="0 0 136.504 138.00932"
   sodipodi:docname="Programming Icons (1).ai"
   inkscape:version="0.92.3 (2405546, 2018-03-11)"><metadata
     id="metadata8"><rdf:RDF><cc:Work
         rdf:about=""><dc:format>image/svg+xml</dc:format><dc:type
           rdf:resource="http://purl.org/dc/dcmitype/StillImage" /><dc:title></dc:title></cc:Work></rdf:RDF></metadata><defs
     id="defs6"><clipPath
       clipPathUnits="userSpaceOnUse"
       id="clipPath18"><path
         d="m 50.579,103.505 c -4.222,-0.019 -8.252,-0.379 -11.801,-1.006 v 0 C 28.328,100.652 26.433,96.789 26.433,89.663 v 0 -9.412 H 51.125 V 77.114 H 17.165 C 9.988,77.114 3.704,72.801 1.739,64.593 v 0 c -2.268,-9.405 -2.368,-15.275 0,-25.096 v 0 C 3.494,32.186 7.686,26.978 14.863,26.978 v 0 h 8.491 V 38.26 c 0,8.151 7.051,15.34 15.425,15.34 v 0 h 24.666 c 6.866,0 12.346,5.654 12.346,12.548 v 0 23.513 c 0,6.693 -5.647,11.72 -12.346,12.837 v 0 c -4.121,0.685 -8.391,1.008 -12.499,1.008 v 0 c -0.122,0 -0.245,0 -0.367,-0.001 M 32.592,91.216 c -10e-4,2.604 2.072,4.721 4.633,4.721 v 0 c 2.55,0 4.634,-2.117 4.634,-4.721 v 0 c 0,-2.593 -2.083,-4.69 -4.634,-4.69 v 0 c -2.561,0 -4.633,2.097 -4.633,4.69"
         id="path16"
         inkscape:connector-curvature="0" /></clipPath><linearGradient
       x1="0"
       y1="0"
       x2="1"
       y2="0"
       gradientUnits="userSpaceOnUse"
       gradientTransform="matrix(56.529144,-49.067802,-48.635868,-57.031181,-2.5066464,100.52671)"
       spreadMethod="pad"
       id="linearGradient28"><stop
         style="stop-opacity:1;stop-color:#5b9fd2"
         offset="0"
         id="stop24" /><stop
         style="stop-opacity:1;stop-color:#2f6a99"
         offset="1"
         id="stop26" /></linearGradient><clipPath
       clipPathUnits="userSpaceOnUse"
       id="clipPath38"><path
         d="M 78.87,77.116 V 77.114 66.148 c 0,-8.5 -7.208,-15.655 -15.426,-15.655 v 0 H 38.778 c -6.755,0 -12.345,-5.783 -12.345,-12.549 v 0 -23.515 c 0,-6.691 5.818,-10.628 12.345,-12.547 v 0 c 7.817,-2.297 15.313,-2.713 24.666,0 v 0 C 69.66,3.683 75.79,7.305 75.79,14.429 v 0 9.412 H 51.125 v 3.138 h 37.012 c 7.177,0 9.853,5.005 12.349,12.519 v 0 c 1.266,3.799 1.883,7.526 1.892,11.511 v 0 0.164 c -0.009,4.082 -0.653,8.438 -1.892,13.421 v 0 c -1.774,7.145 -5.161,12.522 -12.349,12.522 v 0 z M 60.364,12.875 c 0,2.595 2.083,4.692 4.633,4.692 v 0 c 2.561,0 4.633,-2.097 4.633,-4.692 v 0 c 0,-2.602 -2.073,-4.719 -4.633,-4.719 v 0 c -2.55,0 -4.633,2.117 -4.633,4.719"
         id="path36"
         inkscape:connector-curvature="0" /></clipPath><linearGradient
       x1="0"
       y1="0"
       x2="1"
       y2="0"
       gradientUnits="userSpaceOnUse"
       gradientTransform="matrix(-20.185806,28.81234,28.55871,20.365076,75.845596,21.758167)"
       spreadMethod="pad"
       id="linearGradient48"><stop
         style="stop-opacity:1;stop-color:#ffd53c"
         offset="0"
         id="stop44" /><stop
         style="stop-opacity:1;stop-color:#fee874"
         offset="1"
         id="stop46" /></linearGradient></defs><sodipodi:namedview
     pagecolor="#ffffff"
     bordercolor="#666666"
     borderopacity="1"
     objecttolerance="10"
     gridtolerance="10"
     guidetolerance="10"
     inkscape:pageopacity="0"
     inkscape:pageshadow="2"
     inkscape:window-width="640"
     inkscape:window-height="480"
     id="namedview4"
     showgrid="false"
     inkscape:zoom="1.7100294"
     inkscape:cx="68.251999"
     inkscape:cy="69.004662"
     inkscape:window-x="0"
     inkscape:window-y="0"
     inkscape:window-maximized="0"
     inkscape:current-layer="g10" /><g
     id="g10"
     inkscape:groupmode="layer"
     inkscape:label="Programming Icons (1)"
     transform="matrix(1.3333333,0,0,-1.3333333,0,138.00933)"><g
       id="g12"><g
         id="g14"
         clip-path="url(#clipPath18)"><g
           id="g20"><g
             id="g22"><path
               d="m 50.579,103.505 c -4.222,-0.019 -8.252,-0.379 -11.801,-1.006 v 0 C 28.328,100.652 26.433,96.789 26.433,89.663 v 0 -9.412 H 51.125 V 77.114 H 17.165 C 9.988,77.114 3.704,72.801 1.739,64.593 v 0 c -2.268,-9.405 -2.368,-15.275 0,-25.096 v 0 C 3.494,32.186 7.686,26.978 14.863,26.978 v 0 h 8.491 V 38.26 c 0,8.151 7.051,15.34 15.425,15.34 v 0 h 24.666 c 6.866,0 12.346,5.654 12.346,12.548 v 0 23.513 c 0,6.693 -5.647,11.72 -12.346,12.837 v 0 c -4.121,0.685 -8.391,1.008 -12.499,1.008 v 0 c -0.122,0 -0.245,0 -0.367,-0.001 M 32.592,91.216 c -10e-4,2.604 2.072,4.721 4.633,4.721 v 0 c 2.55,0 4.634,-2.117 4.634,-4.721 v 0 c 0,-2.593 -2.083,-4.69 -4.634,-4.69 v 0 c -2.561,0 -4.633,2.097 -4.633,4.69"
               style="fill:url(#linearGradient28);stroke:none"
               id="path30"
               inkscape:connector-curvature="0" /></g></g></g></g><g
       id="g32"><g
         id="g34"
         clip-path="url(#clipPath38)"><g
           id="g40"><g
             id="g42"><path
               d="M 78.87,77.116 V 77.114 66.148 c 0,-8.5 -7.208,-15.655 -15.426,-15.655 v 0 H 38.778 c -6.755,0 -12.345,-5.783 -12.345,-12.549 v 0 -23.515 c 0,-6.691 5.818,-10.628 12.345,-12.547 v 0 c 7.817,-2.297 15.313,-2.713 24.666,0 v 0 C 69.66,3.683 75.79,7.305 75.79,14.429 v 0 9.412 H 51.125 v 3.138 h 37.012 c 7.177,0 9.853,5.005 12.349,12.519 v 0 c 1.266,3.799 1.883,7.526 1.892,11.511 v 0 0.164 c -0.009,4.082 -0.653,8.438 -1.892,13.421 v 0 c -1.774,7.145 -5.161,12.522 -12.349,12.522 v 0 z M 60.364,12.875 c 0,2.595 2.083,4.692 4.633,4.692 v 0 c 2.561,0 4.633,-2.097 4.633,-4.692 v 0 c 0,-2.602 -2.073,-4.719 -4.633,-4.719 v 0 c -2.55,0 -4.633,2.117 -4.633,4.719"
               style="fill:url(#linearGradient48);stroke:none"
               id="path50"
               inkscape:connector-curvature="0" /></g></g></g></g></g></svg>