<?xml version="1.0" encoding="UTF-8" standalone="no"?>
<!-- Created with Inkscape (http://www.inkscape.org/) -->

<svg
   xmlns:dc="http://purl.org/dc/elements/1.1/"
   xmlns:cc="http://creativecommons.org/ns#"
   xmlns:rdf="http://www.w3.org/1999/02/22-rdf-syntax-ns#"
   xmlns:svg="http://www.w3.org/2000/svg"
   xmlns="http://www.w3.org/2000/svg"
   xmlns:sodipodi="http://sodipodi.sourceforge.net/DTD/sodipodi-0.dtd"
   xmlns:inkscape="http://www.inkscape.org/namespaces/inkscape"
   width="82px"
   height="82px"
   viewBox="0 0 450 450"
   id="svg2"
   sodipodi:version="0.32"
   inkscape:version="0.92.3 (2405546, 2018-03-11)"
   version="1.0"
   sodipodi:docname="scheme.svg">
  <defs
     id="defs4" />
  <sodipodi:namedview
     id="base"
     pagecolor="#ffffff"
     bordercolor="#666666"
     borderopacity="1.0"
     gridtolerance="10000"
     guidetolerance="10"
     objecttolerance="10"
     inkscape:pageopacity="0.0"
     inkscape:pageshadow="2"
     inkscape:zoom="7.7923167"
     inkscape:cx="85.259252"
     inkscape:cy="26.417196"
     inkscape:document-units="px"
     inkscape:current-layer="layer1"
     width="240px"
     height="400px"
     inkscape:window-width="2560"
     inkscape:window-height="1412"
     inkscape:window-x="2560"
     inkscape:window-y="0"
     showgrid="false"
     inkscape:window-maximized="1" />
  <metadata
     id="metadata7">
    <rdf:RDF>
      <cc:Work
         rdf:about="">
        <dc:format>image/svg+xml</dc:format>
        <dc:type
           rdf:resource="http://purl.org/dc/dcmitype/StillImage" />
      </cc:Work>
    </rdf:RDF>
  </metadata>
  <g
     inkscape:label="Layer 1"
     inkscape:groupmode="layer"
     id="layer1">
    <path
       style="font-style:normal;font-weight:normal;font-size:502.57669067px;font-family:'Times New Roman';fill:#000000;fill-opacity:1;stroke:none;stroke-width:1px;stroke-linecap:butt;stroke-linejoin:miter;stroke-opacity:1"
       d="M 336.16564,326.71779 H 345 c -2.5e-4,25.84872 -4.21292,44.66261 -12.63804,56.44172 -8.42558,11.77914 -18.93682,17.66871 -31.53374,17.66871 -10.30694,0 -20.20468,-3.88548 -29.69325,-11.65644 -9.48892,-7.77095 -17.99606,-28.58892 -25.52147,-62.45399 L 224.5092,231.50307 151.38037,397.39264 H 105 L 210.03067,171.13497 c -5.56247,-29.284 -12.27003,-50.96087 -20.1227,-65.03068 -7.85284,-14.069224 -17.58698,-21.103984 -29.20245,-21.104294 -9.32521,3.1e-4 -17.46426,3.55859 -24.41718,10.67485 -6.95299,7.116864 -10.83847,18.118894 -11.65644,33.006134 h -8.83436 c 0.49078,-24.04879 5.31696,-43.312574 14.47853,-57.791414 9.16152,-14.47819 20.61345,-21.71744 34.35583,-21.71779 8.83428,3.5e-4 17.21873,3.64043 25.15338,10.92024 7.93446,7.2805 14.80562,19.71402 20.61349,37.30062 5.80766,17.587194 14.8465,54.028874 27.11657,109.325154 l 17.42331,77.79141 c 7.0346,32.22912 14.43746,53.78329 22.20859,64.66258 7.77077,10.87938 17.05502,16.31905 27.85276,16.31902 18.32288,3e-5 28.71142,-12.92429 31.16564,-38.77301 z"
       id="text2160"
       inkscape:connector-curvature="0" />
  </g>
</svg>
