<?xml version="1.0" encoding="UTF-8" standalone="no"?>
<!-- Created with Inkscape (http://www.inkscape.org/) -->

<svg
   xmlns:dc="http://purl.org/dc/elements/1.1/"
   xmlns:cc="http://creativecommons.org/ns#"
   xmlns:rdf="http://www.w3.org/1999/02/22-rdf-syntax-ns#"
   xmlns:svg="http://www.w3.org/2000/svg"
   xmlns="http://www.w3.org/2000/svg"
   xmlns:sodipodi="http://sodipodi.sourceforge.net/DTD/sodipodi-0.dtd"
   xmlns:inkscape="http://www.inkscape.org/namespaces/inkscape"
   version="1.1"
   id="svg2"
   xml:space="preserve"
   width="82px"
   height="82px"
   viewBox="0 0 166.18668 158.69333"
   sodipodi:docname="Programming Icons (1).ai"
   inkscape:version="0.92.3 (2405546, 2018-03-11)"><metadata
     id="metadata8"><rdf:RDF><cc:Work
         rdf:about=""><dc:format>image/svg+xml</dc:format><dc:type
           rdf:resource="http://purl.org/dc/dcmitype/StillImage" /><dc:title></dc:title></cc:Work></rdf:RDF></metadata><defs
     id="defs6"><clipPath
       clipPathUnits="userSpaceOnUse"
       id="clipPath18"><path
         d="M 0,119.02 H 124.64 V 0 H 0 Z"
         id="path16"
         inkscape:connector-curvature="0" /></clipPath></defs><sodipodi:namedview
     pagecolor="#ffffff"
     bordercolor="#666666"
     borderopacity="1"
     objecttolerance="10"
     gridtolerance="10"
     guidetolerance="10"
     inkscape:pageopacity="0"
     inkscape:pageshadow="2"
     inkscape:window-width="640"
     inkscape:window-height="480"
     id="namedview4"
     showgrid="false"
     inkscape:zoom="1.4871451"
     inkscape:cx="83.093338"
     inkscape:cy="79.346664"
     inkscape:window-x="0"
     inkscape:window-y="0"
     inkscape:window-maximized="0"
     inkscape:current-layer="g10" /><g
     id="g10"
     inkscape:groupmode="layer"
     inkscape:label="Programming Icons (1)"
     transform="matrix(1.3333333,0,0,-1.3333333,0,158.69333)"><g
       id="g12"><g
         id="g14"
         clip-path="url(#clipPath18)"><g
           id="g20"
           transform="translate(124.6299,89.4501)"><path
             d="m 0,0 c 0,2.63 -0.265,5.253 -0.79,7.83 -0.524,2.638 -1.417,5.19 -2.65,7.58 -1.289,2.315 -2.891,4.442 -4.76,6.32 -1.928,1.887 -4.168,3.426 -6.62,4.55 -2.42,1.22 -5.009,2.073 -7.68,2.53 -2.65,0.51 -5.56,0.51 -8.21,0.76 h -65.37 c -2.039,-0.033 -4.074,-0.204 -6.09,-0.51 -2.001,-0.236 -3.959,-0.747 -5.82,-1.52 -0.53,-0.25 -1.32,-0.51 -1.85,-0.76 -1.76,-0.944 -3.433,-2.041 -5,-3.28 -0.53,-0.51 -1.06,-0.76 -1.59,-1.26 -1.949,-1.808 -3.561,-3.948 -4.76,-6.32 -1.31,-2.357 -2.206,-4.92 -2.65,-7.58 -0.394,-2.595 -0.658,-5.209 -0.79,-7.83 v -60.39 c 10e-4,-2.63 0.266,-5.253 0.79,-7.83 0.525,-2.638 1.417,-5.189 2.65,-7.58 1.289,-2.315 2.891,-4.442 4.76,-6.32 1.928,-1.887 4.168,-3.426 6.62,-4.55 2.42,-1.22 5.009,-2.073 7.68,-2.53 2.65,-0.51 5.56,-0.51 8.21,-0.76 h 63.22 c 2.754,0.002 5.502,0.257 8.21,0.76 2.672,0.457 5.26,1.31 7.68,2.53 2.4,1.215 4.626,2.745 6.62,4.55 1.949,1.807 3.561,3.948 4.76,6.32 1.31,2.356 2.206,4.921 2.65,7.58 0.394,2.595 0.658,5.208 0.79,7.83 L 0.01,0 Z"
             style="fill:#f05238;fill-opacity:1;fill-rule:nonzero;stroke:none"
             id="path22"
             inkscape:connector-curvature="0" /></g><g
           id="g24"
           transform="translate(83.2998,27.0096)"><path
             d="m 0,0 c -11.11,-6.13 -26.38,-6.76 -41.75,-0.47 -11.983,4.863 -22.23,13.214 -29.41,23.97 3.337,-2.554 6.982,-4.678 10.85,-6.319 15.87,-7.101 31.73,-6.611 42.9,0 -15.9,11.66 -29.4,26.819 -39.46,39.199 -1.985,2.093 -3.757,4.377 -5.29,6.82 12.16,-10.61 31.5,-24 38.38,-27.79 -9.823,10.066 -18.85,20.878 -27,32.34 13.547,-13.165 28.454,-24.854 44.47,-34.869 0.71,-0.381 1.26,-0.7 1.7,-1 0.47,1.145 0.874,2.317 1.21,3.51 C 0.31,48.28 -3.93,62.93 -13.19,75.061 8.25,62.69 21,39.45 15.66,19.99 c -0.14,-0.53 -0.29,-1 -0.45,-1.55 l 0.19,-0.219 c 10.59,-12.63 7.68,-26 6.35,-23.5 C 16,5.5 5.37,2.17 0,0"
             style="fill:#ffffff;fill-opacity:1;fill-rule:nonzero;stroke:none"
             id="path26"
             inkscape:connector-curvature="0" /></g></g></g></g></svg>